<svg xmlns="http://www.w3.org/2000/svg"
     viewBox="0 0 1610 362"
     width="1610" height="362"
     role="img" aria-label="cafe Sisi Italy logo">
  <path d="M 1535 282 L 1535 285 L 1537 287 L 1538 291 L 1550 315 L 1550 337 L 1559 337 L 1560 336 L 1560 314 L 1565 305 L 1565 303 L 1567 301 L 1567 299 L 1570 294 L 1570 292 L 1575 283 L 1574 282 L 1566 282 L 1561 291 L 1561 293 L 1555 304 L 1545 284 L 1543 282 Z M 1474 283 L 1473 284 L 1473 310 L 1474 311 L 1473 313 L 1473 326 L 1474 327 L 1474 335 L 1473 336 L 1474 337 L 1504 337 L 1504 329 L 1484 329 L 1483 328 L 1483 283 L 1482 282 L 1481 283 L 1479 282 L 1477 283 Z M 1413 282 L 1410 286 L 1409 293 L 1407 297 L 1407 300 L 1405 304 L 1405 307 L 1403 311 L 1403 314 L 1400 321 L 1400 324 L 1398 328 L 1398 331 L 1397 332 L 1397 335 L 1396 337 L 1406 337 L 1406 335 L 1408 331 L 1408 328 L 1409 326 L 1412 324 L 1415 324 L 1416 325 L 1418 325 L 1419 324 L 1421 325 L 1424 325 L 1426 328 L 1426 331 L 1428 334 L 1428 337 L 1438 337 L 1437 335 L 1437 332 L 1436 331 L 1436 328 L 1434 324 L 1434 321 L 1432 317 L 1432 314 L 1430 310 L 1429 303 L 1426 296 L 1424 285 L 1422 282 L 1417 282 L 1416 283 L 1414 283 Z M 1417 297 L 1418 298 L 1418 300 L 1420 304 L 1420 307 L 1422 311 L 1422 315 L 1423 316 L 1422 317 L 1412 317 L 1411 316 L 1412 315 L 1414 304 Z M 1364 282 L 1350 282 L 1349 283 L 1330 283 L 1330 290 L 1331 291 L 1342 291 L 1343 292 L 1343 337 L 1352 337 L 1352 292 L 1353 291 L 1365 291 L 1365 283 Z M 1284 282 L 1282 284 L 1282 337 L 1292 337 L 1292 283 L 1291 282 L 1289 283 L 1288 282 L 1286 282 L 1285 283 Z M 639 80 L 638 81 L 630 82 L 621 86 L 604 100 L 604 101 L 598 109 L 595 116 L 593 118 L 591 122 L 591 126 L 590 127 L 588 135 L 586 138 L 586 151 L 587 152 L 587 168 L 588 169 L 590 177 L 595 185 L 598 188 L 601 193 L 606 198 L 606 199 L 612 205 L 615 206 L 617 208 L 623 211 L 625 211 L 628 213 L 634 214 L 635 215 L 641 215 L 642 216 L 644 216 L 645 215 L 652 215 L 656 213 L 664 212 L 681 205 L 696 189 L 699 183 L 699 176 L 698 174 L 694 171 L 689 170 L 685 172 L 678 178 L 677 178 L 672 184 L 672 185 L 662 194 L 660 194 L 656 196 L 653 196 L 652 197 L 646 197 L 640 193 L 633 193 L 632 192 L 630 192 L 626 190 L 624 188 L 619 186 L 614 181 L 612 176 L 607 169 L 607 166 L 606 165 L 606 162 L 605 161 L 605 158 L 606 156 L 612 151 L 621 151 L 622 150 L 627 150 L 628 149 L 633 149 L 634 150 L 637 150 L 640 152 L 645 152 L 652 149 L 659 149 L 660 150 L 663 150 L 664 151 L 672 151 L 673 150 L 676 150 L 677 149 L 683 149 L 687 151 L 693 151 L 697 149 L 700 146 L 700 144 L 701 143 L 701 132 L 700 131 L 700 126 L 699 125 L 699 121 L 698 120 L 698 118 L 695 112 L 693 110 L 692 107 L 690 105 L 689 102 L 687 100 L 685 96 L 681 92 L 680 92 L 674 87 L 667 85 L 661 82 L 650 82 L 649 81 Z M 612 130 L 612 125 L 617 118 L 620 117 L 624 113 L 624 106 L 628 102 L 636 98 L 639 98 L 640 97 L 645 97 L 651 100 L 659 101 L 661 103 L 662 103 L 666 109 L 666 113 L 668 117 L 672 121 L 672 127 L 668 131 L 665 132 L 658 137 L 652 137 L 651 136 L 647 135 L 645 133 L 640 133 L 637 136 L 631 138 L 630 137 L 619 136 Z M 89 77 L 87 78 L 77 79 L 76 80 L 73 80 L 72 81 L 64 83 L 56 87 L 53 90 L 52 90 L 40 102 L 40 103 L 35 109 L 32 116 L 30 118 L 29 124 L 28 125 L 28 128 L 27 129 L 27 131 L 25 135 L 25 138 L 24 139 L 24 161 L 25 162 L 26 172 L 27 173 L 27 176 L 29 179 L 29 181 L 35 192 L 47 204 L 48 204 L 50 206 L 57 209 L 62 213 L 68 216 L 70 216 L 71 217 L 76 217 L 77 218 L 92 218 L 93 217 L 98 217 L 99 216 L 102 216 L 103 215 L 105 215 L 106 214 L 120 210 L 126 207 L 128 205 L 129 205 L 141 193 L 148 179 L 148 171 L 147 169 L 144 166 L 142 165 L 139 165 L 138 164 L 134 164 L 123 169 L 118 173 L 115 178 L 109 184 L 101 188 L 98 188 L 93 191 L 91 191 L 87 193 L 85 193 L 79 190 L 76 190 L 75 189 L 70 188 L 62 183 L 57 178 L 55 174 L 54 169 L 48 158 L 49 146 L 46 141 L 46 138 L 47 137 L 47 134 L 48 133 L 48 131 L 49 130 L 49 128 L 50 127 L 50 125 L 51 124 L 53 117 L 59 109 L 62 108 L 69 103 L 81 98 L 84 98 L 85 97 L 91 97 L 92 98 L 95 98 L 96 99 L 101 100 L 111 106 L 114 111 L 114 114 L 111 118 L 108 124 L 108 127 L 107 128 L 108 129 L 108 132 L 109 134 L 115 140 L 117 141 L 120 141 L 121 142 L 129 142 L 136 139 L 141 133 L 144 126 L 144 116 L 143 115 L 143 113 L 139 108 L 138 103 L 135 97 L 131 93 L 130 93 L 127 90 L 111 82 L 109 82 L 102 79 L 90 78 Z M 1294 83 L 1286 90 L 1286 91 L 1283 94 L 1279 103 L 1279 115 L 1280 116 L 1280 119 L 1281 120 L 1282 124 L 1285 127 L 1286 130 L 1290 134 L 1294 136 L 1301 136 L 1302 137 L 1304 137 L 1314 144 L 1325 144 L 1326 145 L 1342 145 L 1343 146 L 1349 146 L 1350 147 L 1356 148 L 1364 153 L 1367 156 L 1367 158 L 1370 163 L 1365 174 L 1357 182 L 1353 183 L 1345 187 L 1338 187 L 1330 183 L 1327 183 L 1326 182 L 1324 182 L 1323 181 L 1316 179 L 1314 177 L 1313 174 L 1310 171 L 1308 171 L 1307 170 L 1303 170 L 1299 166 L 1294 156 L 1289 151 L 1287 150 L 1281 151 L 1276 155 L 1276 157 L 1275 158 L 1275 164 L 1276 165 L 1276 168 L 1277 169 L 1277 181 L 1276 182 L 1276 185 L 1275 186 L 1275 189 L 1274 190 L 1274 199 L 1275 200 L 1276 204 L 1283 210 L 1290 210 L 1297 206 L 1306 206 L 1309 204 L 1311 204 L 1319 208 L 1321 208 L 1324 210 L 1326 210 L 1330 212 L 1333 212 L 1334 213 L 1349 213 L 1350 212 L 1354 212 L 1355 211 L 1358 211 L 1362 209 L 1365 209 L 1368 207 L 1372 206 L 1383 196 L 1383 195 L 1389 188 L 1392 181 L 1392 178 L 1393 177 L 1393 172 L 1394 171 L 1394 163 L 1393 162 L 1393 159 L 1392 158 L 1390 151 L 1380 140 L 1379 140 L 1373 135 L 1369 134 L 1368 133 L 1362 133 L 1361 132 L 1355 132 L 1354 131 L 1348 131 L 1347 130 L 1339 131 L 1338 130 L 1334 130 L 1326 125 L 1310 125 L 1309 124 L 1306 124 L 1302 122 L 1300 119 L 1300 113 L 1298 109 L 1298 105 L 1300 101 L 1303 98 L 1308 96 L 1310 94 L 1316 91 L 1318 91 L 1319 90 L 1325 90 L 1329 92 L 1335 92 L 1336 91 L 1341 91 L 1343 90 L 1354 95 L 1357 98 L 1358 98 L 1368 108 L 1372 116 L 1376 120 L 1378 120 L 1379 121 L 1380 120 L 1384 119 L 1387 115 L 1387 109 L 1386 108 L 1386 104 L 1385 103 L 1385 100 L 1384 99 L 1385 92 L 1387 88 L 1385 81 L 1381 77 L 1375 77 L 1371 80 L 1370 83 L 1368 85 L 1363 85 L 1360 83 L 1358 83 L 1355 81 L 1353 81 L 1350 79 L 1347 79 L 1343 77 L 1339 77 L 1338 76 L 1330 76 L 1329 75 L 1322 75 L 1321 76 L 1314 76 L 1313 77 L 1309 77 L 1308 78 L 1300 80 Z M 1114 76 L 1110 80 L 1109 84 L 1108 85 L 1108 88 L 1110 91 L 1110 93 L 1115 98 L 1117 99 L 1122 99 L 1123 98 L 1126 98 L 1127 97 L 1133 97 L 1134 98 L 1138 99 L 1144 96 L 1150 96 L 1154 100 L 1154 102 L 1155 103 L 1155 113 L 1154 114 L 1154 117 L 1153 118 L 1153 137 L 1154 138 L 1155 146 L 1154 147 L 1154 150 L 1153 151 L 1153 154 L 1152 155 L 1152 159 L 1151 160 L 1151 164 L 1150 165 L 1150 180 L 1145 184 L 1140 184 L 1139 183 L 1130 183 L 1129 184 L 1125 184 L 1124 185 L 1123 184 L 1110 183 L 1109 184 L 1105 184 L 1104 185 L 1102 185 L 1098 187 L 1096 189 L 1095 193 L 1093 196 L 1093 201 L 1095 205 L 1099 209 L 1103 210 L 1104 211 L 1109 211 L 1110 212 L 1114 212 L 1115 213 L 1124 213 L 1125 212 L 1126 213 L 1130 213 L 1134 215 L 1138 215 L 1142 213 L 1157 213 L 1158 212 L 1171 212 L 1172 211 L 1180 211 L 1181 212 L 1193 212 L 1194 211 L 1195 212 L 1199 212 L 1200 213 L 1209 213 L 1210 212 L 1218 212 L 1222 210 L 1225 207 L 1227 203 L 1227 196 L 1226 195 L 1226 191 L 1222 186 L 1218 184 L 1215 184 L 1214 183 L 1206 183 L 1205 184 L 1192 184 L 1191 183 L 1184 183 L 1182 184 L 1180 183 L 1175 177 L 1175 165 L 1174 164 L 1174 161 L 1173 160 L 1173 148 L 1174 147 L 1174 139 L 1175 138 L 1175 117 L 1174 116 L 1174 113 L 1173 112 L 1173 104 L 1174 103 L 1174 96 L 1175 94 L 1174 93 L 1174 89 L 1171 82 L 1166 78 L 1154 78 L 1150 76 L 1145 76 L 1144 77 L 1141 77 L 1140 78 L 1134 78 L 1133 77 L 1127 76 L 1126 75 L 1116 75 Z M 1471 77 L 1467 82 L 1466 88 L 1470 95 L 1474 98 L 1476 98 L 1477 99 L 1481 99 L 1482 98 L 1485 98 L 1486 97 L 1492 97 L 1493 98 L 1497 99 L 1504 96 L 1508 96 L 1511 98 L 1512 102 L 1513 103 L 1513 107 L 1514 108 L 1513 110 L 1513 114 L 1512 115 L 1512 120 L 1511 121 L 1511 135 L 1512 136 L 1512 139 L 1513 140 L 1513 149 L 1512 150 L 1512 153 L 1511 154 L 1511 157 L 1510 158 L 1510 162 L 1508 166 L 1508 181 L 1506 183 L 1504 184 L 1499 184 L 1498 183 L 1494 183 L 1493 182 L 1492 183 L 1488 183 L 1487 184 L 1475 184 L 1474 183 L 1469 183 L 1468 184 L 1464 184 L 1463 185 L 1461 185 L 1454 191 L 1454 193 L 1452 196 L 1452 201 L 1453 203 L 1459 209 L 1463 211 L 1466 211 L 1467 212 L 1473 212 L 1474 213 L 1476 212 L 1484 212 L 1485 213 L 1488 213 L 1491 215 L 1496 215 L 1497 214 L 1500 214 L 1501 213 L 1518 213 L 1519 212 L 1527 212 L 1528 211 L 1541 211 L 1542 212 L 1553 211 L 1554 212 L 1557 212 L 1558 213 L 1566 213 L 1567 212 L 1576 212 L 1582 209 L 1585 204 L 1585 192 L 1582 187 L 1581 187 L 1579 185 L 1573 184 L 1572 183 L 1561 183 L 1560 184 L 1543 183 L 1542 184 L 1539 184 L 1536 181 L 1534 177 L 1534 164 L 1533 163 L 1533 160 L 1532 159 L 1532 147 L 1533 146 L 1533 141 L 1534 140 L 1534 118 L 1533 117 L 1533 113 L 1532 112 L 1533 90 L 1530 83 L 1524 78 L 1514 78 L 1513 77 L 1510 77 L 1509 76 L 1502 76 L 1498 78 L 1493 78 L 1492 77 L 1489 77 L 1485 75 L 1481 75 L 1480 74 L 1478 74 Z M 226 86 L 218 101 L 218 103 L 217 104 L 217 113 L 218 114 L 218 118 L 219 119 L 219 121 L 222 125 L 227 128 L 238 128 L 243 125 L 246 122 L 250 115 L 249 98 L 253 94 L 259 93 L 260 92 L 265 92 L 266 91 L 271 91 L 272 92 L 283 92 L 289 95 L 297 102 L 301 110 L 301 113 L 300 114 L 300 117 L 296 120 L 288 120 L 281 125 L 268 125 L 267 126 L 261 127 L 260 128 L 254 129 L 253 130 L 248 130 L 247 131 L 244 131 L 243 132 L 235 133 L 227 137 L 218 144 L 217 144 L 210 152 L 207 158 L 207 160 L 205 164 L 205 167 L 204 168 L 204 177 L 205 178 L 205 182 L 206 183 L 208 191 L 212 198 L 218 204 L 226 208 L 228 208 L 232 210 L 235 210 L 236 211 L 271 211 L 272 210 L 283 208 L 286 206 L 291 205 L 297 202 L 302 202 L 304 203 L 313 211 L 320 214 L 333 214 L 343 209 L 346 206 L 351 194 L 351 182 L 347 177 L 343 175 L 336 175 L 328 179 L 326 179 L 323 174 L 323 171 L 322 170 L 322 164 L 323 163 L 323 161 L 322 160 L 322 144 L 323 143 L 323 136 L 322 135 L 322 129 L 323 128 L 323 107 L 322 106 L 322 102 L 321 101 L 320 93 L 315 87 L 315 86 L 311 82 L 304 78 L 298 77 L 297 76 L 291 75 L 290 74 L 253 74 L 252 75 L 247 76 L 244 78 L 242 78 Z M 297 150 L 297 165 L 296 166 L 295 170 L 284 181 L 276 185 L 274 185 L 270 187 L 261 187 L 260 188 L 240 186 L 239 185 L 237 185 L 235 183 L 235 182 L 233 180 L 233 178 L 229 173 L 229 167 L 232 161 L 236 157 L 244 153 L 246 153 L 253 150 L 257 150 L 258 149 L 261 149 L 262 150 L 272 150 L 273 149 L 279 148 L 280 147 L 282 147 L 289 144 L 293 145 Z M 1156 31 L 1151 35 L 1148 41 L 1147 48 L 1150 55 L 1155 59 L 1157 59 L 1158 60 L 1163 60 L 1164 59 L 1167 59 L 1168 58 L 1171 59 L 1173 58 L 1176 55 L 1179 49 L 1179 43 L 1178 42 L 1176 35 L 1173 32 L 1169 31 L 1168 30 L 1160 30 L 1159 31 Z M 1509 34 L 1505 41 L 1505 50 L 1506 51 L 1506 53 L 1508 55 L 1508 56 L 1509 56 L 1514 60 L 1521 60 L 1522 59 L 1529 59 L 1531 58 L 1534 55 L 1537 48 L 1536 39 L 1534 35 L 1530 31 L 1528 30 L 1525 30 L 1524 29 L 1519 29 L 1518 30 L 1515 30 Z M 948 28 L 947 29 L 944 29 L 937 33 L 935 33 L 929 36 L 927 36 L 920 42 L 920 43 L 914 50 L 910 58 L 909 64 L 908 65 L 908 69 L 907 70 L 907 78 L 908 79 L 908 83 L 909 84 L 909 88 L 910 89 L 910 91 L 916 102 L 924 110 L 925 110 L 929 114 L 936 118 L 942 119 L 943 120 L 946 120 L 947 121 L 950 121 L 951 122 L 954 122 L 955 123 L 967 123 L 968 124 L 972 124 L 973 125 L 978 125 L 979 126 L 988 127 L 995 130 L 1005 140 L 1006 142 L 1006 145 L 1007 146 L 1007 152 L 1004 159 L 1003 170 L 996 180 L 995 180 L 987 187 L 981 190 L 978 190 L 977 191 L 975 191 L 974 192 L 970 192 L 969 193 L 967 193 L 966 192 L 961 192 L 960 191 L 956 191 L 950 188 L 944 183 L 943 183 L 931 171 L 930 166 L 928 163 L 928 160 L 926 157 L 926 155 L 923 148 L 918 144 L 916 144 L 915 143 L 911 143 L 907 145 L 904 150 L 904 156 L 905 157 L 905 161 L 906 162 L 906 166 L 907 167 L 907 181 L 906 182 L 906 188 L 905 189 L 905 193 L 904 194 L 904 199 L 903 200 L 903 202 L 904 203 L 904 206 L 906 210 L 909 213 L 911 213 L 912 214 L 917 214 L 918 213 L 920 213 L 924 211 L 928 207 L 931 207 L 932 206 L 942 211 L 944 211 L 948 213 L 951 213 L 957 216 L 959 216 L 960 217 L 964 217 L 965 218 L 968 218 L 972 216 L 984 216 L 985 215 L 988 215 L 989 214 L 994 213 L 1000 210 L 1003 210 L 1004 211 L 1006 210 L 1013 203 L 1013 202 L 1019 195 L 1023 187 L 1023 185 L 1025 181 L 1025 178 L 1026 177 L 1026 174 L 1027 173 L 1027 168 L 1026 167 L 1026 161 L 1027 160 L 1027 155 L 1028 154 L 1027 146 L 1022 140 L 1022 138 L 1021 137 L 1021 135 L 1018 128 L 1012 121 L 1011 121 L 1006 116 L 1003 115 L 1001 113 L 995 110 L 989 109 L 988 108 L 981 108 L 980 107 L 977 107 L 976 106 L 971 106 L 970 105 L 965 105 L 964 104 L 951 103 L 950 102 L 944 101 L 943 100 L 941 100 L 934 97 L 928 91 L 927 89 L 927 86 L 926 85 L 926 83 L 925 82 L 925 78 L 924 77 L 924 73 L 925 72 L 925 68 L 926 67 L 927 63 L 929 61 L 929 60 L 938 52 L 944 52 L 945 53 L 947 53 L 959 47 L 966 47 L 967 48 L 970 48 L 973 50 L 978 51 L 981 53 L 983 53 L 987 55 L 998 66 L 998 67 L 1000 69 L 1003 75 L 1003 77 L 1004 78 L 1004 80 L 1007 87 L 1010 90 L 1014 91 L 1018 89 L 1021 84 L 1020 74 L 1019 73 L 1018 67 L 1017 66 L 1017 60 L 1020 53 L 1019 35 L 1016 31 L 1014 30 L 1009 30 L 1006 33 L 1004 37 L 1004 39 L 1001 42 L 996 42 L 991 38 L 978 32 L 970 31 L 969 30 L 965 30 L 964 29 L 961 29 L 960 28 Z M 523 28 L 517 25 L 514 25 L 513 24 L 508 24 L 503 28 L 497 24 L 488 24 L 487 25 L 480 25 L 479 26 L 476 26 L 466 31 L 463 34 L 462 34 L 456 41 L 447 61 L 447 65 L 446 66 L 446 81 L 443 83 L 437 83 L 436 82 L 433 82 L 432 81 L 424 81 L 420 83 L 415 83 L 414 82 L 411 82 L 410 81 L 406 81 L 405 82 L 403 82 L 399 86 L 398 90 L 400 94 L 404 97 L 406 97 L 407 98 L 412 98 L 413 97 L 423 97 L 424 98 L 429 98 L 430 97 L 433 97 L 434 96 L 441 96 L 442 97 L 444 97 L 446 99 L 447 103 L 448 104 L 448 134 L 447 135 L 447 139 L 446 140 L 446 170 L 445 171 L 445 174 L 444 175 L 443 180 L 440 185 L 434 188 L 425 188 L 421 186 L 412 186 L 411 187 L 407 187 L 406 188 L 404 188 L 402 190 L 401 190 L 397 194 L 396 198 L 395 199 L 395 203 L 396 204 L 396 206 L 400 212 L 407 215 L 425 215 L 431 212 L 436 212 L 442 215 L 450 215 L 451 214 L 456 214 L 457 213 L 480 213 L 481 214 L 484 214 L 485 215 L 495 215 L 496 214 L 507 212 L 512 207 L 512 205 L 513 204 L 513 195 L 512 194 L 512 192 L 507 187 L 505 186 L 502 186 L 501 185 L 483 185 L 482 186 L 475 186 L 472 184 L 470 184 L 466 179 L 466 176 L 465 175 L 465 172 L 464 171 L 464 165 L 465 164 L 465 161 L 466 160 L 466 150 L 465 149 L 465 145 L 464 144 L 464 132 L 462 128 L 462 117 L 463 116 L 463 113 L 462 112 L 462 108 L 461 107 L 461 99 L 466 95 L 478 96 L 479 95 L 482 95 L 483 94 L 490 94 L 494 96 L 499 96 L 500 95 L 504 94 L 506 92 L 507 88 L 503 83 L 501 83 L 500 82 L 496 82 L 495 83 L 491 83 L 490 84 L 484 84 L 481 82 L 473 82 L 472 83 L 467 83 L 466 82 L 464 82 L 461 79 L 461 60 L 462 59 L 462 56 L 463 55 L 463 51 L 468 44 L 470 43 L 478 43 L 484 36 L 486 35 L 494 35 L 495 34 L 499 33 L 503 30 L 506 33 L 516 37 L 519 40 L 519 43 L 514 49 L 514 56 L 515 57 L 516 61 L 521 66 L 525 68 L 532 68 L 536 66 L 541 61 L 542 57 L 543 56 L 543 50 L 542 49 L 542 47 L 540 43 Z"
        fill="#000000"
        fill-rule="evenodd"
        clip-rule="evenodd"/>
</svg>
